<svg id="Layer_1" data-name="Layer 1" xmlns="http://www.w3.org/2000/svg" xmlns:xlink="http://www.w3.org/1999/xlink" viewBox="0 0 722 698.7"><defs><style>.cls-1{fill:none;}.cls-2{clip-path:url(#clip-path);}.cls-3{clip-path:url(#clip-path-2);}.cls-4{opacity:0.5;}.cls-5{clip-path:url(#clip-path-3);}.cls-6{clip-path:url(#clip-path-4);}.cls-7{fill:url(#linear-gradient);}.cls-8{fill:#fff;}</style><clipPath id="clip-path" transform="translate(-537.56 -50.04)"><rect class="cls-1" x="622" y="104" width="619.37" height="576"/></clipPath><clipPath id="clip-path-2" transform="translate(-537.56 -50.04)"><path class="cls-1" d="M1146.61,227.88c32.16.71,55.05,8,66.23,21,6.83,8,9.06,18.4,6.63,30.9-2.92,15-11.89,32.19-26.67,51l-1.06,1.35a286.21,286.21,0,0,0-45.13-104.33M910,104c-159.06,0-288,128.94-288,288S750.94,680,910,680s288-128.94,288-288a260.06,260.06,0,0,0-1.8-32.14l5.89-7.31c21.11-24.87,33.86-48,37.9-68.74,3.71-19.07-.08-35.37-11.26-48.46-16.69-19.53-49.37-29.39-94.66-28.52l-3.49.06A287.37,287.37,0,0,0,910,104Z"/></clipPath><clipPath id="clip-path-3" transform="translate(-537.56 -50.04)"><rect class="cls-1" x="481.98" y="39.46" width="791.19" height="794.07"/></clipPath><clipPath id="clip-path-4" transform="translate(-537.56 -50.04)"><rect class="cls-1" x="537.56" y="50.04" width="722" height="698.7"/></clipPath><linearGradient id="linear-gradient" x1="2.17" y1="768.85" x2="3.69" y2="768.85" gradientTransform="matrix(505.85, 0, 0, -505.85, -1096.14, 389269.51)" gradientUnits="userSpaceOnUse"><stop offset="0" stop-color="#fff"/><stop offset="0.08" stop-color="#f6fbfc"/><stop offset="0.22" stop-color="#deeff4"/><stop offset="0.4" stop-color="#b6dde7"/><stop offset="0.6" stop-color="#7fc3d5"/><stop offset="0.83" stop-color="#39a2be"/><stop offset="1" stop-color="#0087ab"/></linearGradient></defs><title>Gradient logo</title><g class="cls-2"><g class="cls-3"><g class="cls-4"><g class="cls-5"><g class="cls-6"><rect class="cls-7" width="722" height="698.7"/></g></g></g></g><g class="cls-2"><path class="cls-8" d="M1196.2,359.86l-4.46-27.66c-24.72,31.55-64.55,66.34-113,99V415.52l-6,4.05q-8.16,5.51-16.43,10.83V410l-5.71,3.18q-9.9,5.52-20.11,10.91l-2,1.08V444.4l0,.79c-3.77,2.4-7.56,4.8-11.32,7.11V444l-5.71,3.18c-9.46,5.28-18.2,10-26.7,14.41-1.68.87-3.35,1.71-5,2.55l-5.25,2.65v24q-6.06,2.93-12.13,5.75V479.21l-42.7,22.16v13.69c-97.39,39.35-191.33,57.36-244.84,44.77l-9.62-2.27,5.56,8.17c1.84,2.69,3.74,5.33,5.66,7.95s3.86,5.15,5.84,7.68l1,1.22,1.54.22a223.06,223.06,0,0,0,30.6,2c66,0,154.68-23.55,244.3-64v17.51l5.57-2.78c4-2,8-4,11.93-6.06V549.8l5.57-2.78c5.05-2.53,10.11-5.07,15.17-7.7,6.76-3.51,13.39-7.07,20-10.66l2-1.09V503.63c4.36-3.06,8.64-6.11,12.74-9.11l1.57-1.15V483.28q10.16-5.62,19.91-11.34V492.5l5.81-3.48c11.69-7,23.17-14.17,34.12-21.37l1.73-1.13V445.86c41.59-27.83,75.64-56.7,100.51-86" transform="translate(-537.56 -50.04)"/><path class="cls-8" d="M997.56,442.28l2.07-1.08V415.51l-7.77,4.13c-1.48.79-3,1.58-4.47,2.36s-3.33,1.7-5,2.53l-5.28,2.67v25.4l5.56-2.78c5-2.48,9.91-5,14.88-7.54" transform="translate(-537.56 -50.04)"/></g></g></svg>